mastitorrents.com
  
http://mastitorrents.com/forums/index.php
  
http://thepiratebay.se/user/HDvideos/0/7

****************************************************************
Ghost Rider Spirit of Vangeance (2012) BDRip Dual Audio[Hindi-Eng] XviD AC3 Team IcTv
****************************************************************

-------------------------------------------------------------------------------
                              General Information
-------------------------------------------------------------------------------


Video
Codec ID                         : XVID
Duration                         : 1h 35mn
Bit rate                         : 887 Kbps
Width                            : 640 pixels
Height                           : 272 pixels
Display aspect ratio             : 2.35:1
Frame rate                       : 23.976 fps
Color space                      : YUV

Audio #1
ID                               : 1
Format                           : AC-3
Format/Info                      : Audio Coding 3
Mode extension                   : CM (complete main)
Codec ID                         : 2000
Duration                         : 1h 35mn
Bit rate mode                    : Constant
Bit rate                         : 224 Kbps
Channel(s)                       : 2 channels
Channel positions                : Front: L R
Sampling rate                    : 48.0 KHz
Bit depth                        : 16 bits
Compression mode                 : Lossy
Stream size                      : 153 MiB (18%)
Alignment                        : Aligned on interleaves
Interleave, duration             : 64 ms (1.53 video frames)
Interleave, preload duration     : 192 ms


Audio #2
ID                               : 2
Format                           : MPEG Audio
Format version                   : Version 1
Format profile                   : Layer 3
Mode                             : Joint stereo
Mode extension                   : MS Stereo
Codec ID                         : 55
Codec ID/Hint                    : MP3
Duration                         : 1h 35mn
Bit rate mode                    : Constant
Bit rate                         : 128 Kbps
Channel(s)                       : 2 channels
Sampling rate                    : 48.0 KHz
Compression mode                 : Lossy
Stream size                      : 87.5 MiB (10%)
Alignment                        : Aligned on interleaves
Interleave, duration             : 167 ms (4.00 video frames)
Interleave, preload duration     : 216 ms



-------------------------------------------------------------------------------
                               Ripper Notes                                  
-------------------------------------------------------------------------------

Audio: Hindi (Fixed Sync) | English (DTS HD to AC3)

     

Enjoy the Movie now !!
       

I Guess you will like quality and enjoy it...
This is "Mahakaal" Time Guys :P B)

-------------------------------------------------------------------------------
             Upper Notes                                  
-------------------------------------------------------------------------------
                                 
                                                                                
Check SAMPLE before you make any FOOl Comment...                               

Enjoy :)

If like it, Enjoy it !!
